<?xml version="1.0" standalone="no"?>
<!DOCTYPE svg PUBLIC "-//W3C//DTD SVG 20010904//EN"
 "http://www.w3.org/TR/2001/REC-SVG-20010904/DTD/svg10.dtd">
<svg version="1.0" xmlns="http://www.w3.org/2000/svg"
 width="1200.000000pt" height="1200.000000pt" viewBox="0 0 1200.000000 1200.000000"
 preserveAspectRatio="xMidYMid meet">
<metadata>
Created by potrace 1.16, written by Peter Selinger 2001-2019
</metadata>
<g transform="translate(0.000000,1200.000000) scale(0.100000,-0.100000)"
fill="#000000" stroke="none">
<path d="M0 6000 l0 -6000 6000 0 6000 0 0 6000 0 6000 -6000 0 -6000 0 0
-6000z m6475 4226 c870 -107 1602 -422 2270 -977 129 -107 397 -375 504 -504
564 -679 885 -1436 983 -2320 17 -160 17 -690 0 -850 -98 -884 -419 -1641
-983 -2320 -107 -129 -375 -397 -504 -504 -679 -564 -1436 -885 -2320 -983
-160 -17 -690 -17 -850 0 -884 98 -1641 419 -2320 983 -129 107 -397 375 -504
504 -564 679 -885 1436 -983 2320 -17 160 -17 690 0 850 98 884 419 1641 983
2320 107 129 375 397 504 504 428 355 882 611 1387 782 336 113 659 176 1088
213 109 9 622 -3 745 -18z"/>
<path d="M3490 5965 l0 -1675 455 0 455 0 0 515 0 515 323 0 c428 0 536 19
736 127 301 162 512 465 582 838 18 96 16 312 -5 404 -95 425 -380 758 -764
895 -151 54 -191 56 -1019 56 l-763 0 0 -1675z m1463 859 c101 -52 148 -121
167 -248 22 -144 -6 -300 -68 -375 -63 -77 -79 -81 -384 -81 l-268 0 0 360 0
360 260 0 c222 0 266 -2 293 -16z"/>
<path d="M6430 5965 l0 -1675 460 0 460 0 0 625 0 625 565 0 565 0 0 370 0
370 -565 0 -565 0 0 280 0 280 690 0 690 0 0 400 0 400 -1150 0 -1150 0 0
-1675z"/>
</g>
</svg>
